<svg display="none" xmlns="http://www.w3.org/2000/svg">
    <symbol id="arrow" viewBox="0 0 9 6" fill="none" xmlns="http://www.w3.org/2000/svg">
        <path d="M1 1L4.5 5L8 1"/>
    </symbol>

    <symbol id="phone" viewBox="0 0 21 21" xmlns="http://www.w3.org/2000/svg">
        <path fill-rule="evenodd" clip-rule="evenodd" d="M18.935 14.3034L15.9717 13.9651C15.26 13.8834 14.56 14.1284 14.0584 14.6301L11.9117 16.7767C8.61005 15.0967 5.90338 12.4017 4.22338 9.08838L6.38171 6.93005C6.88338 6.42838 7.12838 5.72839 7.04671 5.01672L6.70838 2.07672C6.56838 0.898386 5.57671 0.0117188 4.38671 0.0117188H2.36838C1.05005 0.0117188 -0.0466192 1.10839 0.0350474 2.42672C0.653381 12.3901 8.62171 20.3467 18.5734 20.9651C19.8917 21.0467 20.9884 19.9501 20.9884 18.6317V16.6134C21 15.4351 20.1134 14.4434 18.935 14.3034Z" fill="#1D1D1D"/>
    </symbol>

    <symbol id="icon_1" viewBox="0 0 48 48">
        <g clip-path="url(#clip0_1457_20712)">
            <path d="M34.8749 14.55C33.5249 15.9 32.1749 17.25 30.7499 18.675C32.3999 20.85 32.9999 23.325 32.3999 26.025C31.8749 28.125 30.6749 29.85 28.8749 31.05C25.3499 33.525 20.6249 33 17.6999 29.85C14.6999 26.625 14.5499 21.9 17.3999 18.525C19.9499 15.45 24.8999 13.95 29.3249 17.175C30.6749 15.825 32.0249 14.475 33.3749 13.05C30.9749 11.025 28.1999 9.825 24.8999 9.6C24.8999 10.5 24.8999 11.325 24.8999 12.225C24.8999 12.975 24.5249 13.425 23.9249 13.425C23.3249 13.425 22.9499 12.975 22.9499 12.225C22.9499 10.275 22.9499 8.4 22.9499 6.45C22.9499 6.225 22.9499 6 22.9499 5.775C21.0749 5.85 19.2749 6.225 17.5499 6.9C11.5499 9.3 7.72488 13.65 6.14988 19.95C6.14988 20.1 6.07488 20.175 6.07488 20.325C5.92488 20.85 5.47488 21.15 4.94988 21.075C4.42488 20.925 4.12488 20.475 4.19988 19.875C4.72488 17.175 5.77488 14.7 7.34988 12.525C11.0999 7.5 15.9749 4.575 22.1999 3.975C22.4249 3.975 22.7249 3.9 23.0249 3.9C23.0249 3.075 23.0249 2.175 23.0249 1.35C23.0249 0.45 23.3249 0 23.9999 0C24.5999 0 24.9749 0.45 24.9749 1.275C24.9749 3.225 24.9749 5.1 24.9749 7.05C24.9749 7.275 24.9749 7.5 24.9749 7.725C28.7249 8.025 32.0249 9.375 34.7999 11.775C35.2499 11.325 35.6249 10.875 36.1499 10.35C35.1749 9.675 34.2749 8.925 33.2249 8.325C31.5749 7.35 29.8499 6.6 27.9749 6.225C27.8249 6.225 27.6749 6.15 27.5999 6.15C27.0749 6 26.7749 5.475 26.9249 4.95C27.0749 4.425 27.5249 4.125 28.1249 4.275C30.5249 4.725 32.6999 5.625 34.7249 6.975C35.6999 7.65 36.5999 8.325 37.7249 9.15C37.7999 8.85 38.0249 8.625 38.0249 8.4C38.0249 7.35 38.0249 6.375 38.0249 5.325C38.0249 4.95 38.1749 4.5 38.4749 4.275C39.6749 3 40.9499 1.725 42.2249 0.45C42.5999 0.075 42.9749 -0.075 43.4249 0.15C43.8749 0.3 44.0249 0.75 44.0249 1.2C44.0249 2.175 44.0249 3.075 44.0249 4.125C44.9999 4.125 45.9749 4.125 46.9499 4.125C47.4749 4.125 47.8499 4.275 48.0749 4.725C48.2249 5.25 48.0749 5.625 47.6999 5.925C46.4249 7.125 45.2249 8.4 44.0249 9.6C43.7249 9.9 43.2749 10.05 42.8999 10.05C41.9249 10.125 40.8749 10.05 39.8999 10.05C39.6749 10.05 39.3749 10.275 39.0749 10.35C40.7249 12.225 41.9249 14.1 42.8249 16.275C43.7249 18.45 44.1749 20.625 44.3249 23.025C45.2249 23.025 46.1249 23.025 46.9499 23.025C47.6999 23.025 48.1499 23.4 48.1499 24C48.1499 24.6 47.6999 24.975 46.9499 24.975C44.9999 24.975 43.0499 24.975 41.0999 24.975C40.8749 24.975 40.6499 24.975 40.5749 24.975C40.1249 26.625 39.8999 28.275 39.2999 29.775C37.3499 34.8 33.7499 38.1 28.5749 39.675C28.4249 39.675 28.3499 39.75 28.1999 39.75C27.5999 39.9 27.1499 39.6 26.9999 39.075C26.8499 38.55 27.1499 38.1 27.7499 37.875C28.1249 37.725 28.4999 37.65 28.7999 37.5C34.4999 35.325 37.7249 31.125 38.3999 25.125C38.3999 25.05 38.3999 25.05 38.3999 24.9C37.5749 24.9 36.6749 24.9 35.8499 24.9C35.0999 24.9 34.6499 24.525 34.6499 23.925C34.6499 23.325 35.0999 22.95 35.8499 22.95C37.7999 22.95 39.6749 22.95 41.6249 22.95C41.8499 22.95 42.0749 22.95 42.2999 22.95C41.9999 18.675 40.4999 14.925 37.7249 11.775C37.2749 12.225 36.8249 12.675 36.3749 13.125C36.4499 13.2 36.5249 13.35 36.6749 13.5C38.0999 15.225 39.1499 17.175 39.7499 19.35C40.0499 20.25 39.8249 20.775 39.2249 21C38.6249 21.15 38.1749 20.775 37.9499 19.95C37.1999 18 36.2249 16.2 34.8749 14.55ZM27.8999 18.675C25.6499 16.8 21.7499 16.65 19.1249 19.35C16.5749 22.05 16.5749 26.025 19.1999 28.65C21.8249 31.275 25.8749 31.35 28.4999 28.8C31.1999 26.25 31.1999 22.35 29.2499 19.95C28.8749 20.325 28.5749 20.625 28.1999 21C27.8999 21.225 27.9749 21.45 28.1249 21.75C28.6499 22.8 28.8749 23.85 28.5749 24.975C27.9749 27.6 25.2749 29.25 22.7249 28.575C20.0999 27.9 18.5249 25.125 19.2749 22.575C20.0999 19.95 22.8749 18.375 25.3499 19.425C26.3999 19.875 26.9999 19.575 27.5249 18.825C27.7499 18.825 27.8249 18.75 27.8999 18.675ZM26.5499 22.725C25.8749 23.4 25.2749 24.075 24.6749 24.675C24.2999 25.05 23.7749 25.05 23.3999 24.675C23.0249 24.3 22.9499 23.85 23.2499 23.4C23.3999 23.25 23.5499 23.1 23.6999 22.95C24.2249 22.425 24.7499 21.9 25.2749 21.375C23.8499 20.775 22.4249 21.225 21.6749 22.35C20.9249 23.475 21.0749 24.975 22.0499 25.95C23.0249 26.925 24.4499 27.075 25.6499 26.325C26.6999 25.575 27.1499 24.15 26.5499 22.725ZM39.8999 8.1C40.7249 8.1 41.4749 8.1 42.2249 8.1C42.3749 8.1 42.5999 8.1 42.6749 8.025C43.2749 7.425 43.9499 6.75 44.6999 6C44.0249 6 43.4999 6 43.0499 6C42.3749 6 41.9999 5.625 41.9999 4.95C41.9999 4.425 41.9999 3.9 41.9999 3.225C41.2499 3.975 40.6499 4.575 40.0499 5.175C39.9749 5.25 39.8999 5.4 39.8999 5.55C39.8249 6.45 39.8999 7.2 39.8999 8.1Z" fill="white"/>
            <path d="M3.7498 24.975C2.9248 24.975 2.0248 24.975 1.1248 24.975C0.374805 24.975 -0.0751953 24.6 -0.0751953 24C-0.0751953 23.4 0.374805 23.1 1.0498 23.025C3.2248 23.025 5.3248 23.025 7.4998 23.025C7.79981 21.75 7.94981 20.55 8.32481 19.35C8.62481 18.375 9.07481 17.4 9.44981 16.5C9.74981 15.9 10.2748 15.675 10.7998 15.975C11.3248 16.275 11.4748 16.8 11.0998 17.4C10.1998 19.2 9.5998 21.075 9.52481 23.1C10.3498 23.1 11.0998 23.1 11.9248 23.1C12.8248 23.1 13.2748 23.4 13.3498 24.075C13.3498 24.75 12.8998 25.05 11.9248 25.05C10.0498 25.05 8.24981 25.05 6.3748 25.05C6.14981 25.05 5.9248 25.05 5.6998 25.05C5.7748 26.625 5.9998 28.125 6.52481 29.55C8.77481 36.075 13.1998 40.2 19.8748 41.85C20.0998 41.925 20.3998 42 20.6248 42.15C20.9998 42.45 21.1498 42.825 20.9248 43.275C20.6998 43.725 20.3248 43.95 19.7998 43.875C17.4748 43.35 15.2248 42.525 13.1998 41.25C7.79981 37.5 4.6498 32.4 3.8998 25.8C3.8998 25.575 3.8248 25.35 3.8248 25.125C3.8248 25.125 3.8248 25.05 3.7498 24.975Z" fill="white"/>
            <path d="M24.9748 44.175C24.9748 45.075 24.9748 45.9 24.9748 46.8C24.9748 47.55 24.5998 48 23.9998 48C23.3998 48 23.0248 47.55 23.0248 46.8C23.0248 44.85 23.0248 42.9 23.0248 40.95C23.0248 40.725 23.0248 40.5 23.0248 40.35C22.0498 40.2 21.1498 40.05 20.2498 39.825C14.1748 38.25 10.1998 34.5 8.32481 28.5C8.24981 28.275 8.1748 28.125 8.1748 27.9C8.1748 27.375 8.39981 27.075 8.84981 26.925C9.29981 26.775 9.74981 26.925 9.97481 27.375C10.0498 27.6 10.1248 27.825 10.1998 28.05C11.8498 33.75 17.1748 38.1 23.0248 38.325C23.0248 37.5 23.0248 36.6 23.0248 35.775C23.0248 35.025 23.3998 34.575 23.9248 34.575C24.5248 34.575 24.8998 35.025 24.8998 35.775C24.8998 37.65 24.8998 39.6 24.8998 41.475C24.8998 41.7 24.8998 41.925 24.8998 42.3C26.0998 42.075 27.2998 41.925 28.4248 41.7C30.4498 41.25 32.2498 40.425 33.9748 39.3C34.1248 39.225 34.2748 39.075 34.4248 39C34.8748 38.85 35.2498 38.925 35.5498 39.3C35.8498 39.675 35.7748 40.125 35.4748 40.425C35.3248 40.575 35.0998 40.725 34.8748 40.875C31.9498 42.75 28.7248 43.8 25.2748 44.1C25.2748 44.1 25.1248 44.175 24.9748 44.175Z" fill="white"/>
            <path d="M40.3505 35.3249C39.3755 35.3249 39.0005 34.5749 39.3755 33.7499C40.0505 32.3999 40.7255 30.975 41.3255 29.55C41.5505 28.95 41.7005 28.275 41.8505 27.675C42.0005 27.075 42.4505 26.7749 42.9755 26.8499C43.5005 26.9999 43.8005 27.4499 43.7255 28.1249C43.2755 30.5249 42.3755 32.6999 41.0255 34.7249C40.8005 35.0249 40.5005 35.2499 40.3505 35.3249Z" fill="white"/>
            <path d="M15.3754 12.225C15.1504 12 14.7754 11.775 14.6254 11.4C14.4004 10.95 14.7004 10.575 15.0754 10.275C16.5004 9.37498 18.0754 8.62498 19.7254 8.24998C20.2504 8.09998 20.6254 8.24998 20.8504 8.69998C21.1504 9.22498 20.9254 9.89998 20.3254 10.125C18.7504 10.575 17.3254 11.175 15.9754 12.075C15.9004 12.075 15.7504 12.075 15.3754 12.225Z" fill="white"/>
            <path d="M13.6504 13.65C13.6504 14.175 13.2004 14.55 12.6754 14.55C12.1504 14.55 11.7754 14.1 11.7754 13.575C11.7754 13.05 12.2254 12.675 12.7504 12.675C13.2004 12.675 13.6504 13.125 13.6504 13.65Z" fill="white"/>
            <path d="M38.7 37.35C38.7 37.875 38.25 38.325 37.725 38.325C37.2 38.325 36.75 37.95 36.75 37.425C36.75 36.9 37.125 36.45 37.65 36.45C38.25 36.45 38.7 36.825 38.7 37.35Z" fill="white"/>
        </g>
    </symbol>
    <symbol id="icon_2" viewBox="0 0 48 48">
        <path d="M3.2 40.6H24.8V43C24.8 44.325 25.875 45.4 27.2 45.4H30.4C31.1 45.4 31.7625 45.0875 32.2125 44.5625C32.225 44.5625 32.2375 44.5625 32.25 44.55C32.8375 45.1 33.6 45.4 34.4 45.4H44C45.325 45.4 46.4 44.325 46.4 43C46.4 42.5875 46.2875 42.175 46.075 41.825C47.1625 41.15 47.525 39.7375 46.875 38.625C47.475 38.25 47.875 37.625 47.975 36.925C48.075 36.225 47.85 35.5125 47.375 35C48.0125 34.3 48.175 33.2875 47.7875 32.425C47.4 31.5625 46.5375 31 45.5875 31H43.1875V6.2C43.1875 4.4375 41.75 3 39.9875 3H3.2C1.4375 3 0 4.4375 0 6.2V37.4C0 39.1625 1.4375 40.6 3.2 40.6ZM30.4 43.8H27.2C26.7625 43.8 26.4 43.4375 26.4 43V35.8C26.4 35.3625 26.7625 35 27.2 35H30.4C30.8375 35 31.2 35.3625 31.2 35.8V43C31.2 43.4375 30.8375 43.8 30.4 43.8ZM46.4 33.4C46.4 33.8375 46.0375 34.2 45.6 34.2H43.2C42.7625 34.2 42.4 34.5625 42.4 35C42.4 35.4375 42.7625 35.8 43.2 35.8H45.6C46.0375 35.8 46.4 36.1625 46.4 36.6C46.4 37.0375 46.0375 37.4 45.6 37.4H43.2C42.7625 37.4 42.4 37.7625 42.4 38.2C42.4 38.6375 42.7625 39 43.2 39H44.8C45.2375 39 45.6 39.3625 45.6 39.8C45.6 40.2375 45.2375 40.6 44.8 40.6H43.2C42.7625 40.6 42.4 40.9625 42.4 41.4C42.4 41.8375 42.7625 42.2 43.2 42.2H44C44.4375 42.2 44.8 42.5625 44.8 43C44.8 43.4375 44.4375 43.8 44 43.8H34.4C33.5125 43.8 32.8 43.0875 32.8 42.2V35.4625C33.8 34.8375 34.55 33.875 34.925 32.7625C35.6375 30.625 36 28.3875 36 26.1375C36 26.025 36.075 25.9375 36.175 25.9C36.45 25.85 37.1625 25.725 37.8375 27.05C38.2125 27.8125 38.4 28.65 38.3875 29.5125V31.8C38.3875 32.2375 38.75 32.6 39.1875 32.6H45.5875C46.0375 32.6 46.4 32.9625 46.4 33.4ZM40 31V29.5125C40.0125 28.4125 39.7625 27.3125 39.275 26.325C38.4875 24.7875 37.2875 24.075 35.9 24.325C35.025 24.4875 34.4 25.25 34.4 26.1375C34.4 28.2125 34.0625 30.2875 33.4125 32.2625C33.1625 33 32.675 33.625 32.025 34.0625C31.5875 33.65 31 33.425 30.4 33.4125H27.2C25.875 33.4125 24.8 34.4875 24.8 35.8125V39.0125H3.2C2.3125 39.0125 1.6 38.3 1.6 37.4125V11H41.6V31H40ZM3.2 4.6H40C40.8875 4.6 41.6 5.3125 41.6 6.2V9.4H1.6V6.2C1.6 5.3125 2.3125 4.6 3.2 4.6Z" fill="white"/>
        <path fill-rule="evenodd" clip-rule="evenodd" d="M4.79922 6.99898C4.79922 7.43648 4.43672 7.79898 3.99922 7.79898C3.56172 7.79898 3.19922 7.43648 3.19922 6.99898C3.19922 6.56148 3.56172 6.19897 3.99922 6.19897C4.43672 6.19897 4.79922 6.56148 4.79922 6.99898Z" fill="white"/>
        <path fill-rule="evenodd" clip-rule="evenodd" d="M8.00039 6.99898C8.00039 7.43648 7.63789 7.79898 7.20039 7.79898C6.76289 7.79898 6.40039 7.43648 6.40039 6.99898C6.40039 6.56148 6.76289 6.19897 7.20039 6.19897C7.63789 6.19897 8.00039 6.56148 8.00039 6.99898Z" fill="white"/>
        <path fill-rule="evenodd" clip-rule="evenodd" d="M11.1996 6.99898C11.1996 7.43648 10.8371 7.79898 10.3996 7.79898C9.96211 7.79898 9.59961 7.43648 9.59961 6.99898C9.59961 6.56148 9.96211 6.19897 10.3996 6.19897C10.8371 6.19897 11.1996 6.56148 11.1996 6.99898Z" fill="white"/>
        <path d="M6.4 27.8005H19.2C20.525 27.8005 21.6 26.7255 21.6 25.4005V15.8005C21.6 14.4755 20.525 13.4005 19.2 13.4005H6.4C5.075 13.4005 4 14.4755 4 15.8005V25.4005C4 26.7255 5.075 27.8005 6.4 27.8005ZM8.3625 26.2005L12.0625 20.3755L13.8375 22.6005L11.5625 26.2005H8.3625ZM19.2 26.2005H13.4625L17.675 19.5755L20 22.488V25.413C20 25.838 19.6375 26.2005 19.2 26.2005ZM5.6 15.8005C5.6 15.363 5.9625 15.0005 6.4 15.0005H19.2C19.6375 15.0005 20 15.363 20 15.8005V19.9255L18.225 17.7005C18.0625 17.5005 17.8125 17.388 17.5625 17.4005C17.3 17.413 17.075 17.5505 16.925 17.7755L14.7625 21.1755L12.625 18.5005C12.4625 18.3005 12.2125 18.188 11.9625 18.2005C11.7 18.213 11.475 18.3505 11.325 18.5755L6.475 26.2005H6.4C5.9625 26.2005 5.6 25.838 5.6 25.4005V15.8005V15.8005Z" fill="white"/>
        <path fill-rule="evenodd" clip-rule="evenodd" d="M8.79922 17.3995C8.79922 17.837 8.43672 18.1995 7.99922 18.1995C7.56172 18.1995 7.19922 17.837 7.19922 17.3995C7.19922 16.962 7.56172 16.5995 7.99922 16.5995C8.43672 16.5995 8.79922 16.962 8.79922 17.3995Z" fill="white"/>
        <path fill-rule="evenodd" clip-rule="evenodd" d="M38.4 14.199H24.8C24.3625 14.199 24 14.5615 24 14.999C24 15.4365 24.3625 15.799 24.8 15.799H38.4C38.8375 15.799 39.2 15.4365 39.2 14.999C39.2 14.5615 38.8375 14.199 38.4 14.199Z" fill="white"/>
        <path fill-rule="evenodd" clip-rule="evenodd" d="M38.4 17.4005H24.8C24.3625 17.4005 24 17.763 24 18.2005C24 18.638 24.3625 19.0005 24.8 19.0005H38.4C38.8375 19.0005 39.2 18.638 39.2 18.2005C39.2 17.763 38.8375 17.4005 38.4 17.4005Z" fill="white"/>
        <path fill-rule="evenodd" clip-rule="evenodd" d="M38.4 20.5995H24.8C24.3625 20.5995 24 20.962 24 21.3995C24 21.837 24.3625 22.1995 24.8 22.1995H38.4C38.8375 22.1995 39.2 21.837 39.2 21.3995C39.2 20.962 38.8375 20.5995 38.4 20.5995Z" fill="white"/>
        <path fill-rule="evenodd" clip-rule="evenodd" d="M32 23.801H24.8C24.3625 23.801 24 24.1635 24 24.601C24 25.0385 24.3625 25.401 24.8 25.401H32C32.4375 25.401 32.8 25.0385 32.8 24.601C32.8 24.1635 32.4375 23.801 32 23.801Z" fill="white"/>
        <path fill-rule="evenodd" clip-rule="evenodd" d="M23.2 31H4.8C4.3625 31 4 31.3625 4 31.8C4 32.2375 4.3625 32.6 4.8 32.6H23.2C23.6375 32.6 24 32.2375 24 31.8C24 31.3625 23.6375 31 23.2 31Z" fill="white"/>
        <path fill-rule="evenodd" clip-rule="evenodd" d="M20.8 34.199H4.8C4.3625 34.199 4 34.5615 4 34.999C4 35.4365 4.3625 35.799 4.8 35.799H20.8C21.2375 35.799 21.6 35.4365 21.6 34.999C21.6 34.5615 21.2375 34.199 20.8 34.199Z" fill="white"/>
    </symbol>
    <symbol id="icon_3" viewBox="0 0 48 48">
        <path d="M13.3441 47.1533C12.474 46.7666 12.0873 46.1866 12.184 45.2199C12.184 44.7365 12.184 44.1564 12.184 43.6731C11.9906 43.6731 11.7973 43.6731 11.604 43.6731C9.28378 43.6731 7.06029 43.6731 4.74012 43.6731C3.58004 43.6731 3 43.093 3 41.933C3 41.4496 3 40.9662 3 40.4828C3 39.9995 3.29002 39.7095 3.67672 39.7095C4.06341 39.7095 4.35343 39.9995 4.35343 40.4828C4.35343 40.9662 4.35343 41.4496 4.35343 41.933C4.35343 42.1263 4.4501 42.223 4.64345 42.223C7.15696 42.223 9.5738 42.223 12.184 42.223C12.184 40.6762 12.184 39.2261 12.184 37.776C10.3472 36.6159 9.76715 35.8425 9.47713 33.7157C8.31705 33.7157 7.15696 33.619 6.09356 33.7157C5.12682 33.8124 4.4501 34.8758 4.35343 35.9392C4.35343 36.4226 4.35343 36.8093 4.35343 37.2926C4.35343 37.776 4.06341 38.066 3.67672 38.066C3.29002 38.066 3 37.776 3 37.2926C3 36.8093 3 36.2292 3 35.7458C3.09667 34.5858 3.67672 33.619 4.64345 32.9423C4.74012 32.8456 4.8368 32.8456 4.93347 32.749C4.54678 31.4922 4.06341 30.3321 3.77339 29.172C2.22661 22.9849 3.19335 17.2812 6.77027 11.9641C6.96362 11.6741 7.06029 11.4808 6.86694 11.0941C6.38358 10.1273 6.57692 8.96726 7.35031 8.19387C8.1237 7.42048 9.18711 7.13046 10.2505 7.61383C10.4439 7.80717 10.6372 7.7105 10.8306 7.51715C11.9906 6.74376 13.0541 5.97037 14.2141 5.19699C14.6975 4.90696 15.0842 5.00364 15.2775 5.39033C15.4709 5.77703 15.2775 6.06705 14.8909 6.35707C13.8274 7.13046 12.764 7.80717 11.7006 8.58056C11.5073 8.67724 11.5073 8.87058 11.604 9.06393C11.9906 10.0307 11.7973 10.9974 11.1206 11.6741C10.4439 12.4475 9.5738 12.7375 8.5104 12.4475C8.22037 12.3508 8.1237 12.4475 7.93035 12.6409C5.99688 15.4444 4.8368 18.5379 4.54678 22.0182C4.16008 25.4984 4.74012 28.7853 6.09356 31.9756C6.19023 32.2656 6.38358 32.3623 6.77027 32.3623C8.1237 32.3623 9.47713 32.3623 10.7339 32.3623C10.8306 31.9756 10.7339 31.7822 10.5405 31.5889C9.38046 30.6221 8.60707 29.4621 8.41372 28.012C8.41372 27.7219 8.31705 27.6253 8.02703 27.5286C6.2869 27.0452 5.70686 24.9184 6.96362 23.565C7.06029 23.4683 7.15697 23.1783 7.15697 22.9849C7.15697 21.5348 7.15697 20.1814 7.15697 18.7313C7.15697 16.6045 8.5104 15.0577 10.4439 14.671C10.7339 14.5743 11.1206 14.5743 11.4106 14.5743C12.8607 14.5743 14.3108 14.5743 15.7609 14.5743C16.7277 14.5743 17.6944 14.8643 18.4678 15.5411C18.5645 15.6377 18.7578 15.6377 18.8545 15.6377C19.7245 15.251 20.5946 15.1544 21.5613 15.1544C22.0447 15.1544 22.4314 15.1544 22.9148 15.1544C23.3015 15.1544 23.5915 15.4444 23.6882 15.8311C23.6882 16.2178 23.3981 16.5078 22.9148 16.5078C22.238 16.5078 21.5613 16.5078 20.8846 16.5078C19.1445 16.5078 17.6944 17.8612 17.5977 19.6014C17.501 21.0515 17.5977 22.5016 17.5977 23.9517C17.5977 24.0483 17.5977 24.0483 17.5977 24.145C17.9844 24.2417 17.9844 24.0483 18.0811 23.7583C18.2744 22.6949 18.6611 21.7282 19.2412 20.8581C19.6279 20.3747 19.8212 20.2781 20.4012 20.4714C22.238 21.0515 23.9782 21.5348 25.9116 21.7282C26.395 21.7282 26.9751 21.7282 27.4584 21.6315C27.7484 21.5348 28.1351 21.3415 28.3285 21.1481C28.7152 20.7614 29.1985 20.7614 29.4886 21.2448C29.9719 22.0182 30.3586 22.8883 30.4553 23.7583C30.4553 23.9517 30.552 24.2417 30.842 24.145C30.842 24.0483 30.842 23.9517 30.842 23.855C30.842 22.8883 30.842 21.9215 30.842 20.9548C30.842 20.4714 30.7453 20.1814 30.1653 20.1814C29.7786 20.0847 29.5852 19.7947 29.5852 19.408C29.5852 18.6346 29.2952 18.0546 28.8119 17.4745C28.2318 16.7978 27.4584 16.5078 26.685 16.5078C26.395 16.5078 26.105 16.5078 25.9116 16.5078C25.525 16.5078 25.2349 16.2178 25.2349 15.8311C25.2349 15.4444 25.525 15.1544 25.9116 15.1544C26.9751 15.0577 28.0385 15.251 28.9085 15.7344C29.8753 14.7677 31.0353 14.4777 32.2921 14.5743C33.7422 14.5743 35.0956 14.5743 36.5457 14.5743C38.3825 14.5743 39.8326 15.7344 40.316 17.4745C40.316 17.5712 40.4127 17.7646 40.606 17.8612C41.1861 18.2479 41.4761 18.828 41.4761 19.5047C41.4761 20.5681 41.4761 21.7282 41.4761 22.7916C41.4761 22.9849 41.5728 23.2749 41.7661 23.3716C43.0229 24.7251 42.4428 26.7552 40.7027 27.3352C40.4127 27.4319 40.4127 27.5286 40.316 27.7219C40.026 29.172 39.3493 30.4288 38.1892 31.3955C37.9958 31.4922 37.9958 31.7822 37.8025 31.9756L37.8992 32.0722C38.5759 32.0722 39.1559 32.0722 39.8326 32.0722C40.5094 32.0722 41.2827 32.0722 41.9595 32.0722C42.3462 32.0722 42.4428 31.9756 42.6362 31.6856C43.9896 28.4953 44.473 25.2084 44.183 21.8248C43.8929 18.4413 42.7329 15.3477 40.8961 12.5442C40.7027 12.2542 40.5094 12.1575 40.2193 12.2542C39.2526 12.5442 38.3825 12.2542 37.7058 11.4808C37.0291 10.7074 36.8358 9.83732 37.2225 8.87058C37.1258 8.87058 37.0291 8.67724 36.8358 8.48389C34.0322 6.2604 30.842 4.81029 27.2651 4.23025C26.8784 4.13358 26.685 4.23025 26.4917 4.61694C25.5249 6.35707 23.0114 6.2604 22.0447 4.61694C21.8514 4.32692 21.658 4.23025 21.368 4.32692C20.2079 4.61694 19.0478 4.90696 17.8877 5.19699C17.6944 5.29366 17.3077 5.29366 17.1143 5.19699C16.921 5.10031 16.7277 4.81029 16.8243 4.61694C16.921 4.4236 17.1143 4.0369 17.3077 4.0369C18.4678 3.65021 19.5312 3.45686 20.6913 3.16684C20.7879 3.16684 20.7879 3.16684 20.8846 3.16684C21.4647 3.16684 21.7547 2.97349 21.948 2.39345C22.4314 1.23337 23.3015 0.75 24.4615 0.75C25.525 0.846674 26.395 1.33004 26.7817 2.39345C26.9751 2.78015 27.1684 2.87682 27.5551 2.97349C31.422 3.55353 34.8056 5.00364 37.8025 7.51715C38.0925 7.7105 38.2859 7.80717 38.6726 7.61383C39.6393 7.22713 40.7994 7.51715 41.4761 8.29054C42.1528 9.06393 42.3462 10.224 41.8628 11.1907C41.7661 11.3841 41.6694 11.5774 41.8628 11.8675C46.2131 18.3446 46.7931 25.2084 43.8929 32.4589C43.8929 32.5556 43.7963 32.6523 43.7963 32.749C43.9896 32.8456 44.0863 32.9423 44.2796 33.1357C45.2464 33.909 45.7297 34.8758 45.7297 36.1325C45.7297 38.066 45.7297 40.0962 45.7297 42.0296C45.7297 43.1897 45.1497 43.7698 43.9896 43.7698C41.6694 43.7698 39.4459 43.7698 37.1258 43.7698C36.9324 43.7698 36.7391 43.7698 36.5457 43.7698C36.5457 44.3498 36.5457 44.8332 36.5457 45.3165C36.6424 46.2833 36.2557 46.8633 35.3857 47.25C27.9418 47.1533 20.6913 47.1533 13.3441 47.1533ZM29.1985 36.1325C28.9085 39.2261 26.5884 40.8695 24.3649 40.8695C23.2048 40.8695 22.238 40.5795 21.368 39.8061C20.1112 38.8394 19.5312 37.5826 19.4345 36.0359C18.3711 36.0359 17.4044 36.0359 16.341 36.0359C14.6008 36.0359 13.5374 37.0993 13.5374 38.8394C13.5374 40.9662 13.5374 43.093 13.5374 45.2199C13.5374 45.6066 13.6341 45.7999 14.1175 45.7999C18.0811 45.7999 22.0447 45.7999 26.0083 45.7999C28.9085 45.7999 31.8087 45.7999 34.7089 45.7999C34.9023 45.7999 35.1923 45.8966 35.1923 45.5099C35.1923 43.1897 35.1923 40.9662 35.1923 38.6461C35.1923 37.3893 34.1289 36.2292 32.9688 36.2292C31.6154 36.0359 30.4553 36.1325 29.1985 36.1325ZM28.9085 22.8883C25.815 23.9517 23.1081 22.7916 20.3046 22.1149C20.2079 22.2115 20.1112 22.3082 20.1112 22.5016C19.6279 23.1783 19.4345 23.9517 19.4345 24.7251C19.4345 26.3685 19.3378 28.012 19.5312 29.5587C19.8212 32.0722 22.1414 33.909 24.6549 33.7157C27.1684 33.5224 29.1985 31.4922 29.1985 28.9787C29.1985 27.5286 29.1985 26.0785 29.1985 24.6284C29.1985 24.0483 29.0052 23.4683 28.9085 22.8883ZM10.0572 21.4382C9.9605 22.0182 9.76715 22.5016 9.67048 22.9849C9.5738 24.435 9.5738 25.9818 9.67048 27.4319C9.86383 30.0421 12.184 31.7822 14.6975 31.3955C15.9543 31.2022 17.0177 30.4288 17.6944 29.3654C17.5977 29.3654 17.501 29.2687 17.501 29.2687C15.8576 28.592 15.2775 27.0452 16.1476 25.4984C16.1476 25.4018 16.2443 25.4018 16.2443 25.3051C16.2443 24.3384 16.2443 23.4683 16.2443 22.5016C14.1175 22.5016 12.184 22.0182 10.0572 21.4382ZM44.183 42.3196C44.183 40.0962 44.183 37.9693 44.183 35.8425C44.183 34.8758 43.4096 33.909 42.4428 33.8124C41.2827 33.7157 40.2193 33.8124 39.0593 33.8124C38.7692 35.9392 38.1892 36.8093 36.3524 37.8727C36.3524 39.4194 36.3524 40.8695 36.3524 42.3196C39.0593 42.3196 41.5728 42.3196 44.183 42.3196ZM30.9387 29.2687C30.9387 29.3654 31.0353 29.4621 31.0353 29.4621C32.0021 30.9122 33.9356 31.6856 35.579 31.2989C37.4158 30.8155 38.7692 29.3654 38.8659 27.5286C38.9626 26.1752 38.9626 24.7251 38.8659 23.3716C38.8659 22.8883 38.6726 22.3082 38.6726 21.8248C36.4491 22.8883 34.4189 22.2115 32.2921 21.8248C32.2921 22.7916 32.2921 23.7583 32.2921 24.7251C32.2921 25.0151 32.3888 25.2084 32.4854 25.4018C33.1622 26.7552 32.6788 28.3987 31.2287 28.9787C31.132 29.172 31.0353 29.2687 30.9387 29.2687ZM30.0686 16.7011C30.3586 17.3779 30.6486 18.0546 30.9387 18.7313C31.0353 19.0213 31.132 19.118 31.3254 19.3113C31.6154 19.6014 31.9054 19.8914 32.1954 20.2781C32.2921 20.3747 32.4854 20.5681 32.5821 20.6648C33.2588 20.8581 33.8389 21.0515 34.5156 21.0515C35.4823 21.1481 36.3524 21.1481 37.3191 21.0515C37.6091 21.0515 37.8025 20.6648 37.9958 20.4714C38.1892 20.2781 38.3825 19.988 38.5759 19.988C38.7692 19.988 39.0593 20.1814 39.2526 20.3747C39.5426 20.7614 39.736 21.1481 39.9293 21.6315C39.9293 20.8581 39.9293 20.1814 39.9293 19.6014C39.9293 19.5047 39.736 19.3113 39.6393 19.2147C39.1559 19.118 38.9626 18.828 38.9626 18.3446C38.8659 17.0878 37.8992 16.1211 36.6424 16.1211C34.999 16.1211 33.3555 16.1211 31.7121 16.1211C31.0353 16.0244 30.4553 16.3145 30.0686 16.7011ZM8.60707 21.4382C8.80042 21.1481 8.99376 20.8581 9.09044 20.5681C9.47713 19.988 9.67048 19.8914 10.3472 20.0847C11.3139 20.3747 12.2807 20.5681 13.2474 20.8581C14.2141 21.0515 15.2775 21.2448 16.341 21.0515C16.2443 19.408 16.4376 17.8612 17.5977 16.7011C17.1143 16.3145 16.631 16.1211 16.0509 16.1211C14.4075 16.1211 12.8607 16.1211 11.2173 16.1211C9.76715 16.1211 8.70374 17.0878 8.60707 18.5379C8.5104 19.408 8.60707 20.4714 8.60707 21.4382ZM26.2983 34.7791C24.7516 35.1658 24.2682 35.2625 22.238 34.7791C22.5281 35.9392 21.8514 36.2292 20.8846 36.0359C20.9813 37.9693 22.5281 39.5161 24.4615 39.5161C26.395 39.4194 27.9418 37.8727 27.8451 36.1325C27.4584 36.0359 26.9751 36.0359 26.7817 35.8425C26.395 35.6492 26.395 35.1658 26.2983 34.7791ZM12.6674 36.5192C13.1507 36.0359 13.6341 35.6492 14.1175 35.2625C14.8909 34.7791 15.6642 34.6824 16.631 34.6824C16.8243 34.6824 17.0177 34.5858 17.0177 34.4891C17.1143 34.2957 17.1143 34.0057 17.211 33.619C16.341 33.7157 15.7609 33.5224 15.8576 32.4589C14.6008 32.8456 13.4407 32.8456 12.2807 32.5556C12.184 32.9423 12.0873 33.329 11.894 33.5224C11.7006 33.7157 11.2173 33.7157 10.9272 33.8124C10.8306 34.8758 11.604 36.0359 12.6674 36.5192ZM32.7755 32.5556C32.5821 33.5224 32.5821 33.5224 31.5187 33.7157C31.422 34.5858 31.5187 34.6824 32.3888 34.6824C33.4522 34.6824 34.4189 34.9725 35.1923 35.7458C35.4823 35.9392 35.6757 36.2292 35.9657 36.5192C37.1258 36.0359 37.9958 34.6824 37.8025 33.7157C36.7391 33.619 36.6424 33.7157 36.5457 32.5556C35.1923 32.9423 34.0322 32.8456 32.7755 32.5556ZM9.18711 11.2874C9.86383 11.2874 10.4439 10.7074 10.4439 10.0307C10.4439 9.35395 9.86383 8.77391 9.28378 8.77391C8.60707 8.77391 8.02703 9.25728 8.02703 9.93399C7.93035 10.7074 8.5104 11.2874 9.18711 11.2874ZM24.2682 4.52027C24.9449 4.52027 25.5249 3.94023 25.5249 3.26351C25.5249 2.5868 24.9449 2.10343 24.2682 2.00676C23.5915 2.00676 23.0114 2.5868 23.0114 3.26351C23.1081 4.0369 23.5915 4.52027 24.2682 4.52027ZM39.4459 11.2874C40.1227 11.2874 40.7027 10.7074 40.7027 10.0307C40.7027 9.35395 40.2193 8.87058 39.5426 8.77391C38.8659 8.77391 38.2859 9.25728 38.2859 9.93399C38.1892 10.7074 38.7692 11.2874 39.4459 11.2874ZM20.7879 34.6824C20.8846 34.1024 20.6913 33.7157 20.3046 33.7157C19.7245 33.619 19.1445 33.7157 18.4678 33.7157C18.4678 34.1024 18.3711 34.3924 18.3711 34.6824C19.2412 34.6824 20.0146 34.6824 20.7879 34.6824ZM30.0686 33.7157C29.5852 33.7157 29.1019 33.7157 28.6185 33.7157C27.9418 33.7157 27.6518 34.0057 27.8451 34.6824C28.6185 34.6824 29.3919 34.6824 30.262 34.6824C30.1653 34.2957 30.1653 34.0057 30.0686 33.7157ZM31.422 32.2656C31.422 31.3955 30.552 31.2989 30.262 30.7188C29.9719 31.2989 29.7786 31.6856 29.4886 32.2656C30.1653 32.2656 30.7453 32.2656 31.422 32.2656ZM19.0478 32.2656C18.7578 31.7822 18.5645 31.2989 18.2744 30.8155C17.9844 31.1055 17.7911 31.2989 17.501 31.4922C17.211 31.6856 16.921 31.8789 17.1143 32.2656C17.8877 32.2656 18.4678 32.2656 19.0478 32.2656ZM17.9844 27.9153C17.9844 27.1419 17.9844 26.4652 17.9844 25.6918C17.4044 25.7885 17.1143 26.1752 17.1143 26.6585C17.1143 27.2386 17.4044 27.7219 17.9844 27.9153ZM30.552 25.6918C30.552 26.4652 30.552 27.1419 30.552 27.9153C31.132 27.8186 31.422 27.3352 31.422 26.8519C31.5187 26.2718 31.132 25.8851 30.552 25.6918ZM8.31705 24.3384C7.83368 24.5317 7.64033 24.9184 7.64033 25.3051C7.64033 25.6918 7.83368 25.9818 8.31705 26.1752C8.31705 25.5951 8.31705 25.0151 8.31705 24.3384ZM40.316 26.1752C40.7994 25.9818 40.9927 25.6918 40.9927 25.2084C40.9927 24.8217 40.7994 24.5317 40.316 24.3384C40.316 25.0151 40.316 25.5951 40.316 26.1752Z" fill="white"/>
    </symbol>

    <symbol id="icon_4" viewBox="0 0 48 48">
        <path d="M23.4629 47.9315C22.5727 47.7261 21.751 47.4522 21.2032 46.699C20.8609 46.2197 20.587 45.6034 20.3131 45.0556C20.1761 44.7817 20.1077 44.6448 19.8338 44.5763C18.0535 44.234 16.2731 43.6177 14.6298 42.796C12.0278 41.495 9.76815 39.7147 7.91936 37.4551C7.71394 37.1812 7.50852 37.1812 7.23463 37.2496C5.52279 37.8659 3.674 37.1127 2.78384 35.5378C1.89368 33.8944 2.23605 31.9087 3.74247 30.8131C4.01637 30.6077 4.08484 30.4023 3.94789 30.0599C2.71537 26.02 2.71537 21.9116 3.94789 17.8716C4.01637 17.5977 4.01637 17.3923 3.74247 17.1869C2.23605 16.0913 1.82521 14.1056 2.71537 12.4622C3.60553 10.8188 5.45431 10.1341 7.23463 10.7504C7.57699 10.8873 7.71394 10.7504 7.91936 10.5449C9.76815 8.28531 12.0278 6.50499 14.6298 5.20399C16.2047 4.38231 17.9165 3.83452 19.6283 3.49215C20.0392 3.42368 20.3131 3.28673 20.45 2.73894C20.7239 1.09558 22.2988 0 24.0107 0C25.7225 0 27.2289 1.23252 27.5713 2.87589C27.6398 3.28673 27.8452 3.42368 28.1876 3.49215C30.995 4.03994 33.5285 5.13552 35.8566 6.77889C37.4315 7.87447 38.801 9.10699 39.965 10.5449C40.1704 10.8188 40.3759 10.8873 40.7182 10.7504C42.3616 10.1341 44.2789 10.8873 45.169 12.3937C46.0592 14.0371 45.7168 16.0228 44.2789 17.1184C44.005 17.3238 43.9365 17.5292 44.005 17.8716C45.2375 21.9116 45.2375 26.02 44.005 30.0599C43.9365 30.3338 43.9365 30.5392 44.2104 30.7447C45.5798 31.7718 46.0592 33.689 45.3744 35.2639C44.6212 36.9073 42.8409 37.8659 41.1975 37.3866C40.4443 37.1812 40.102 37.3866 39.6226 37.9344C36.6098 41.3581 32.7753 43.5492 28.3245 44.5078C27.9137 44.5763 27.6398 44.7817 27.5713 45.2611C27.1604 46.699 26.2018 47.5207 24.8323 47.9315C24.6954 47.9315 24.6269 48 24.49 48C24.0791 47.9315 23.8052 47.9315 23.4629 47.9315ZM23.9422 13.4893C18.1904 13.4893 13.4657 18.214 13.4657 23.9658C13.4657 29.7175 18.1904 34.4422 23.9422 34.4422C29.694 34.4422 34.4186 29.7175 34.4186 23.9658C34.4186 18.214 29.694 13.4893 23.9422 13.4893ZM20.3816 4.86163C15.6569 5.75178 11.8224 8.07989 8.80952 11.7775C9.6312 12.8046 9.9051 13.9001 9.6312 15.1327C9.6312 15.2696 9.76815 15.4066 9.83662 15.475C10.7268 15.9544 11.6169 16.4337 12.5071 16.913C12.9179 17.1184 13.3288 17.3923 13.7396 17.5977C16.2047 13.9686 19.5599 11.9829 23.9422 11.9829C28.3245 11.9829 31.6112 14.0371 34.0763 17.5977C35.2403 16.9815 36.3359 16.3652 37.4315 15.7489C37.9793 15.475 38.3216 15.2011 38.1847 14.4479C37.9793 13.4208 38.3901 12.5307 39.0749 11.709C36.062 8.01141 32.2275 5.68331 27.5028 4.79315C27.0235 6.2311 26.0649 7.05278 24.6269 7.39515C24.6269 8.42225 24.6269 9.44936 24.6269 10.408C24.1476 10.408 23.6683 10.408 23.1205 10.408C23.1205 9.38089 23.1205 8.35378 23.1205 7.39515C21.8195 7.05278 20.8609 6.2311 20.3816 4.86163ZM8.80952 36.1541C11.8908 39.8516 15.6569 42.1797 20.3816 43.0699C20.8609 41.7004 21.8195 40.8103 23.2575 40.4679C23.2575 39.4408 23.2575 38.4137 23.2575 37.4551C23.8052 37.4551 24.2161 37.4551 24.7639 37.4551C24.7639 38.4822 24.7639 39.5093 24.7639 40.4679C26.2018 40.8103 27.092 41.7004 27.5713 43.0699C32.296 42.1113 36.1305 39.8516 39.1433 36.1541C38.2532 34.7846 38.1847 34.3738 38.3216 32.7989C38.3216 32.6619 38.2532 32.525 38.1847 32.4565C36.8837 31.7033 35.5142 31.0185 34.1448 30.2653C31.6797 33.8944 28.3245 35.8802 23.9422 35.8802C19.5599 35.8802 16.2047 33.826 13.7396 30.2653C12.3701 31.0185 11.0691 31.7033 9.76815 32.4565C9.69968 32.525 9.56273 32.6619 9.6312 32.7989C9.9051 34.0999 9.56273 35.1954 8.80952 36.1541ZM13.0549 28.9643C11.6169 25.6091 11.6169 22.2539 13.0549 18.8987C11.6169 18.1455 10.2475 17.3238 8.80952 16.5706C7.85089 17.5977 6.75531 18.0086 5.38584 17.8716C4.15331 21.9116 4.15331 25.883 5.38584 29.923C6.75531 29.786 7.85089 30.2653 8.80952 31.224C10.2475 30.5392 11.6169 29.786 13.0549 28.9643ZM39.0749 31.2924C39.965 30.4023 40.9921 29.8545 42.2931 29.923C42.3616 29.923 42.567 29.7175 42.6355 29.6491C43.3202 27.4579 43.5941 25.2668 43.4572 22.9387C43.3887 21.2268 43.1148 19.5835 42.4985 17.9401C41.1975 18.077 40.102 17.6662 39.2118 16.776C39.1433 16.7076 38.9379 16.7076 38.801 16.776C38.1847 17.1184 37.5684 17.4608 37.0206 17.7347C36.3359 18.1455 35.5827 18.4879 34.898 18.8987C36.3359 22.2539 36.3359 25.6091 34.898 28.9643C36.2674 29.786 37.6369 30.5392 39.0749 31.2924ZM23.9422 5.9572C25.1747 5.9572 26.2018 4.9301 26.2018 3.76605C26.2018 2.53352 25.2432 1.50642 24.0107 1.50642C22.7781 1.50642 21.751 2.53352 21.751 3.76605C21.6826 4.9301 22.7097 5.9572 23.9422 5.9572ZM8.19326 14.2425C8.19326 13.01 7.16615 11.9829 5.93363 11.9829C4.7011 11.9829 3.674 13.01 3.674 14.2425C3.674 15.475 4.7011 16.4337 5.93363 16.4337C7.23463 16.4337 8.19326 15.4066 8.19326 14.2425ZM44.1419 14.2425C44.1419 13.01 43.1148 11.9829 41.9507 11.9829C40.7182 11.9829 39.6911 12.9415 39.6911 14.174C39.6911 15.4066 40.7182 16.4337 41.9507 16.4337C43.1148 16.5021 44.1419 15.475 44.1419 14.2425ZM8.19326 33.689C8.19326 32.4565 7.16615 31.4294 5.93363 31.4294C4.7011 31.4294 3.674 32.4565 3.674 33.689C3.674 34.9215 4.7011 35.9486 5.93363 35.9486C7.23463 35.9486 8.19326 34.9215 8.19326 33.689ZM44.1419 33.689C44.1419 32.4565 43.1148 31.4294 41.9507 31.4294C40.7182 31.4294 39.6911 32.388 39.6911 33.6205C39.6911 34.8531 40.7182 35.8802 41.9507 35.8802C43.1148 35.9486 44.1419 34.9215 44.1419 33.689ZM23.9422 41.9743C22.7097 41.9743 21.6826 43.0014 21.6826 44.1655C21.6826 45.398 22.7097 46.4251 23.9422 46.4251C25.1747 46.4251 26.2018 45.398 26.2018 44.1655C26.2018 42.933 25.1747 41.9743 23.9422 41.9743Z" fill="white"/>
        <path d="M21.545 23.0748C20.1071 21.7738 19.9017 20.1989 20.3125 18.487C20.7233 16.7067 22.5037 15.5427 24.2155 15.6796C26.2012 15.885 27.5022 17.3915 27.6392 19.3772C27.7077 20.7467 27.4338 21.9792 26.2697 23.0063C26.4751 23.1432 26.6806 23.3487 26.886 23.4856C27.9816 24.1703 29.1456 24.8551 30.2412 25.4713C30.5151 25.6083 30.652 25.8137 30.5835 26.1561C30.5835 26.8408 30.5835 27.5255 30.5835 28.1418C30.652 29.032 30.1727 29.6482 29.4195 29.9221C28.6663 30.196 27.8446 30.4014 27.0914 30.4699C24.6263 30.6753 22.0928 30.7438 19.6278 30.333C19.2169 30.2645 18.8061 30.1275 18.3952 29.9906C17.5736 29.6482 17.0942 29.032 17.1627 28.1418C17.1627 27.4571 17.1627 26.7723 17.1627 26.0876C17.1627 25.8137 17.2312 25.6768 17.4366 25.5398C18.6007 24.8551 19.6962 24.1703 20.8603 23.4856C21.1342 23.4171 21.3396 23.2802 21.545 23.0748ZM23.5308 29.2374C24.9002 29.1689 25.8589 29.1689 26.8175 29.1004C27.4338 29.032 28.1185 28.895 28.7348 28.7581C29.0771 28.6896 29.1456 28.4842 29.1456 28.1418C29.351 27.0462 28.9402 26.293 27.8446 25.8822C27.7077 25.8137 27.5707 25.7452 27.5022 25.6768C26.6806 25.129 25.8589 24.5127 25.0372 23.9649C24.9687 23.8964 24.7633 23.8965 24.6263 23.8965C24.0786 23.8965 23.5992 23.8965 23.0515 23.8965C22.9145 23.8965 22.7091 23.8964 22.6406 23.9649C21.7505 24.9236 20.5864 25.4713 19.4908 26.0876C18.8061 26.4984 18.4637 26.9093 18.6007 27.731C18.6691 28.6896 18.6691 28.6896 19.5593 28.9635C19.6278 28.9635 19.6278 28.9635 19.6962 28.9635C21.2027 29.032 22.5721 29.1689 23.5308 29.2374ZM21.682 19.788C21.682 19.9935 21.682 20.1989 21.682 20.4043C21.7505 21.5683 22.7091 22.39 23.8047 22.4585C24.9002 22.527 25.9273 21.7738 26.0643 20.6782C26.1328 20.0619 26.1328 19.4457 25.9958 18.8979C25.6535 17.5284 24.0101 16.8437 22.7776 17.5284C22.0243 18.0077 21.682 18.8294 21.682 19.788Z" fill="white"/>
        <path d="M24.6958 4.44966C24.2164 4.44966 23.7371 4.44966 23.2578 4.44966C23.2578 3.97035 23.2578 3.49103 23.2578 3.01172C23.7371 3.01172 24.2164 3.01172 24.6958 3.01172C24.6958 3.49103 24.6958 3.97035 24.6958 4.44966Z" fill="white"/>
        <path d="M6.68599 14.9267C6.20668 14.9267 5.72736 14.9267 5.24805 14.9267C5.24805 14.4474 5.24805 13.9681 5.24805 13.4888C5.72736 13.4888 6.20668 13.4888 6.68599 13.4888C6.68599 13.9681 6.68599 14.4474 6.68599 14.9267Z" fill="white"/>
        <path d="M42.6352 13.4888C42.6352 13.9681 42.6352 14.4474 42.6352 14.9267C42.1559 14.9267 41.6766 14.9267 41.1973 14.9267C41.1973 14.4474 41.1973 13.9681 41.1973 13.4888C41.6766 13.4888 42.1559 13.4888 42.6352 13.4888Z" fill="white"/>
        <path d="M6.68599 34.4417C6.20668 34.4417 5.72736 34.4417 5.24805 34.4417C5.24805 33.9624 5.24805 33.4831 5.24805 33.0038C5.72736 33.0038 6.20668 33.0038 6.68599 33.0038C6.68599 33.4831 6.68599 33.9624 6.68599 34.4417Z" fill="white"/>
        <path d="M42.6352 33.0038C42.6352 33.4831 42.6352 33.9624 42.6352 34.4417C42.1559 34.4417 41.6766 34.4417 41.1973 34.4417C41.1973 33.9624 41.1973 33.4831 41.1973 33.0038C41.6766 33.0038 42.1559 33.0038 42.6352 33.0038Z" fill="white"/>
        <path d="M24.6958 43.4807C24.6958 43.96 24.6958 44.4393 24.6958 44.9187C24.2164 44.9187 23.7371 44.9187 23.2578 44.9187C23.2578 44.4393 23.2578 43.96 23.2578 43.4807C23.7371 43.4807 24.148 43.4807 24.6958 43.4807Z" fill="white"/>
    </symbol>

</svg>